<svg xmlns="http://www.w3.org/2000/svg" width="125.605" height="38.862" viewBox="0 0 125.605 38.862">
  <g id="グループ_1381" data-name="グループ 1381" transform="translate(18017 2015.362)">
    <path id="パス_4480" data-name="パス 4480" d="M189.743,66.253h-5.311c-.532,0-.6-.061-.584-.582a6.767,6.767,0,0,1,.1-1.018,2.655,2.655,0,0,1,2.271-2.046,10.611,10.611,0,0,1,2.55-.166c2.649-.044,5.3-.015,7.947.007a5.345,5.345,0,0,1,2.2.47,2.305,2.305,0,0,1,1.424,1.935,34.583,34.583,0,0,1,.086,3.875c.008,1.879.05,3.758-.027,5.636a6.729,6.729,0,0,1-.092,1.055,2.313,2.313,0,0,1-1.55,1.755,6.534,6.534,0,0,1-2.362.433q-4.267.018-8.534,0a6.42,6.42,0,0,1-2.362-.43,2.326,2.326,0,0,1-1.6-2.189c-.112-2.183-.024-4.367-.055-6.551,0-.235.1-.332.33-.331,1.367,0,2.735,0,4.1,0,.321,0,.338.195.337.437q-.008,2.343-.007,4.685c0,.521.063.581.594.581h5.9c.523,0,.585-.066.585-.591q0-3.2,0-6.4c0-.519-.063-.583-.593-.583h-5.347v.026" transform="translate(-18148.598 -2060.042)" fill="#1b4086"/>
    <path id="パス_4481" data-name="パス 4481" d="M256.84,82.377h5.786a6.779,6.779,0,0,1,2.471.408,2.331,2.331,0,0,1,1.634,2.007,19.816,19.816,0,0,1,.008,4.564,2.45,2.45,0,0,1-2.193,2.3,9,9,0,0,1-1.993.236c-2.746,0-5.493,0-8.239-.005a6.367,6.367,0,0,1-2.394-.431,2.786,2.786,0,0,1-1.73-3.021c.045-.3.167-.375.446-.375q4.339.015,8.678.014c.745,0,1.489.007,2.234,0,.446,0,.524-.105.5-.554a7.3,7.3,0,0,1,0-.8c.022-.439-.033-.515-.482-.517-1.05-.005-2.1,0-3.149,0-1.55-.006-3.1,0-4.649-.032a5.169,5.169,0,0,1-1.915-.421,2.86,2.86,0,0,1-1.639-3.113c.04-.178.089-.28.3-.279,2.111.006,4.223,0,6.335,0v.018" transform="translate(-18196.063 -2074.313)" fill="#1b1311"/>
    <path id="パス_4482" data-name="パス 4482" d="M390.407,82.417h5.715a6.414,6.414,0,0,1,2.465.445,2.389,2.389,0,0,1,1.554,2c.1.687-.042,1.37,0,2.056s.011,1.381.057,2.074a2.49,2.49,0,0,1-1.648,2.5,6.733,6.733,0,0,1-2.324.427q-4.341.023-8.682,0a6.338,6.338,0,0,1-2.25-.424,2.4,2.4,0,0,1-1.633-2.288c-.062-1.1-.05-1.1,1.036-1.1l10,.01c.11,0,.22,0,.33,0,.289-.016.446-.142.428-.461-.019-.34-.016-.682,0-1.023a.318.318,0,0,0-.333-.382c-.122-.009-.244-.009-.366-.009-2.357-.006-4.713-.016-7.07-.015a6.752,6.752,0,0,1-2.3-.376,2.455,2.455,0,0,1-1.733-2.371c-.04-1.068-.04-1.068,1.037-1.068h5.715Z" transform="translate(-18291.619 -2074.354)" fill="#1b1311"/>
    <path id="パス_4483" data-name="パス 4483" d="M123.241,62.366c2.9.026,5.014-.024,7.125.058a4.97,4.97,0,0,1,1.872.454,2.339,2.339,0,0,1,1.445,2.077c.155,1.962.052,3.926.073,5.889.022,2.037.012,4.074.016,6.111,0,.6-.026.628-.644.627q-1.776,0-3.552,0c-.521,0-.587-.066-.586-.59q.01-4.922.021-9.844c0-.11,0-.22,0-.329-.009-.537-.1-.634-.65-.632q-5.2.012-10.4.03c-.812,0-.838-.025-.829-.838.01-.841,0-1.683,0-2.524,0-.426.059-.486.488-.487,2.136,0,4.272,0,5.617,0" transform="translate(-18100.846 -2060.005)" fill="#1b4086"/>
    <path id="パス_4484" data-name="パス 4484" d="M322.726,68.045h5.42c.47,0,.552-.078.55-.554,0-1.537-.014-3.074-.019-4.611,0-.5.047-.541.547-.54,1.269,0,2.539.012,3.808,0,.3,0,.442.066.439.4-.014,1.659,0,3.318-.011,4.978a12.3,12.3,0,0,1-.128,1.858,2.247,2.247,0,0,1-1.52,1.846,9.383,9.383,0,0,1-3.529.452c-.073,0-.146-.007-.22-.007-.462,0-.536.069-.535.521q0,2.342,0,4.685c0,.458-.025.484-.472.485-1.282,0-2.564-.005-3.845.008-.329,0-.454-.106-.451-.445.013-1.561.006-3.123.006-4.685,0-.529-.017-.54-.561-.552a13.841,13.841,0,0,1-3.09-.255,2.841,2.841,0,0,1-2.287-3.274c.027-.238.1-.329.363-.327,1.843.013,3.686.007,5.53.007Z" transform="translate(-18243.779 -2059.986)" fill="#1b1311"/>
    <path id="パス_4485" data-name="パス 4485" d="M38.313,81.5q.012,2.78.023,5.561c0,.219,0,.439,0,.659,0,.461.049.507.5.507q1.318,0,2.636-.005h.384c.053.151-.032.24-.075.335-.8,1.76-1.615,3.516-2.41,5.28-.14.31-.291.393-.614.243q-6.092-2.836-12.192-5.657c-.076-.035-.147-.081-.224-.124.064-.134.175-.073.258-.074.6,0,1.2,0,1.794,0,.411,0,.5-.078.5-.485,0-.988,0-1.976,0-2.964q0-3.55,0-7.1c0-.146.013-.292.019-.438a2.994,2.994,0,0,1,.345.1c.654.282,1.306.571,1.959.857q.011,3.07.021,6.141c0,.524.007,1.048,0,1.572,0,.295.131.417.422.415,1.3-.005,2.61-.011,3.914,0,.362,0,.425-.191.425-.486q0-2.486,0-4.972c0-.134.008-.268.012-.4l2.3,1.029" transform="translate(-18035.855 -2070.654)" fill="#1b4086"/>
    <path id="パス_4486" data-name="パス 4486" d="M48.713,57.679c-.008-1.6.009-3.2-.032-4.793-.031-1.23.052-2.464-.1-3.69a2.119,2.119,0,0,0-1.428-1.788,5.553,5.553,0,0,0-2.03-.422c-2.855-.028-5.711-.038-8.566-.054-.506,0-.509-.005-.288-.469.037-.077.077-.152.112-.23.194-.439.164-.527-.273-.733-.562-.265-1.124-.531-1.694-.779-.264-.115-.307-.252-.18-.508.286-.579.56-1.164.814-1.757.13-.3.288-.332.566-.192.577.29,1.171.547,1.749.835.271.135.424.075.543-.2.268-.614.56-1.217.826-1.832.12-.278.271-.327.54-.194.558.274,1.121.537,1.693.78.33.14.367.317.212.623-.286.565-.536,1.148-.812,1.718-.134.277-.084.447.209.575.625.274,1.246.56,1.857.862.276.136.426.068.544-.2.276-.624.565-1.242.845-1.864.094-.21.2-.3.45-.188q3.9,1.835,7.815,3.657a.405.405,0,0,1,.081.069c-.34.008-.68.018-1.02.024-.429.008-.532.124-.5.558.017.217.034.436.034.653,0,.692.012,1.384-.034,2.076-.03.445.057.5.49.514.521.017,1.042.051,1.562.078-.2.489-.4.977-.6,1.467a.667.667,0,0,0-.1.341c-.255,0-.511.013-.767.009-.5-.008-.6.118-.57.632a19.378,19.378,0,0,1-.011,2.3,2.9,2.9,0,0,0-.54.968,7.738,7.738,0,0,1-.7,1.384c-.257-.006-.44-.236-.7-.233" transform="translate(-18041.455 -2044.571)" fill="#1f98ca"/>
    <path id="パス_4487" data-name="パス 4487" d="M391.989,66.208h-7.767c-.606,0-.649-.05-.584-.654a3.534,3.534,0,0,1,3.08-3.065,10.656,10.656,0,0,1,1.749-.144c2.442,0,4.885,0,7.327.007a7.5,7.5,0,0,1,2.692.425,2.434,2.434,0,0,1,1.641,2.015c.055.338.048.673.076,1.009.026.3-.061.393-.373.389-1.135-.015-2.271,0-3.407.006q-2.217,0-4.433,0Z" transform="translate(-18291.602 -2059.989)" fill="#1e1512"/>
    <path id="パス_4488" data-name="パス 4488" d="M258.6,66.183h-7.583c-.608,0-.686-.094-.577-.688a3.662,3.662,0,0,1,3.616-3.111c1.818-.131,3.637-.047,5.456-.053,1.379,0,2.76-.068,4.137.053a6.173,6.173,0,0,1,1.735.407,2.448,2.448,0,0,1,1.565,2.3c0,.049,0,.1.005.146.039.907.015.934-.915.934q-3.719,0-7.437,0Z" transform="translate(-18196.24 -2059.964)" fill="#1e1512"/>
    <path id="パス_4489" data-name="パス 4489" d="M121.917,87.185q0,2.1,0,4.207c0,.488-.039.526-.512.526-1.269,0-2.538-.009-3.806.006-.35,0-.477-.12-.476-.466.006-2.841,0-5.682,0-8.523,0-.47.08-.543.558-.543h3.733c.435,0,.505.067.506.512,0,1.427,0,2.853,0,4.28h-.006" transform="translate(-18100.84 -2074.34)" fill="#1b4086"/>
    <path id="パス_4490" data-name="パス 4490" d="M92.181,85.326a19.321,19.321,0,0,0,.011-2.3c-.025-.514.07-.64.57-.632.256,0,.512-.005.767-.009l2.927,0c.431,0,.512.076.512.511q0,4.26,0,8.52c0,.439-.063.493-.518.494H92.714c-.472,0-.533-.051-.533-.518q0-3.035,0-6.07" transform="translate(-18082.984 -2074.336)" fill="#1b4086"/>
    <path id="パス_4491" data-name="パス 4491" d="M5.286,81.019c-1.759-.812-3.459-1.6-5.161-2.379-.188-.087-.123-.192-.061-.322,1.523-3.184,2.981-6.4,4.429-9.615.063-.141.115-.3.305-.217.251.109.639.1.609.514-.277,3.837-.044,7.68-.121,11.519,0,.146,0,.292,0,.5" transform="translate(-18017 -2064.369)" fill="#1b4086"/>
    <path id="パス_4492" data-name="パス 4492" d="M319.333,62.333c.658,0,1.317.008,1.976,0,.3-.005.422.111.42.408q-.01,1.517,0,3.034c0,.316-.135.427-.443.425q-1.957-.014-3.915,0c-.326,0-.463-.115-.458-.449.012-.987.014-1.974,0-2.961-.006-.359.143-.468.483-.459.646.017,1.292,0,1.939.005" transform="translate(-18243.854 -2059.977)" fill="#201614"/>
    <path id="パス_4493" data-name="パス 4493" d="M94.2,66.193c-.521-.027-1.041-.061-1.562-.078-.434-.014-.52-.069-.491-.514.046-.692.034-1.384.034-2.076,0-.218-.016-.436-.034-.653-.035-.434.068-.55.5-.558.34-.006.68-.016,1.02-.024l2.743.021c.458,0,.531.075.531.529q0,1.408,0,2.815c0,.44-.061.5-.511.5-.743,0-1.486-.025-2.228.037" transform="translate(-18082.955 -2059.95)" fill="#1b4086"/>
    <path id="パス_4494" data-name="パス 4494" d="M62.6,80.45l-2.3-1.029c-.009-1.1-.013-2.19-.03-3.285,0-.278.128-.363.378-.361q.8.006,1.607,0c.231,0,.377.078.375.334q-.017,2.172-.032,4.343" transform="translate(-18060.145 -2069.602)" fill="#1f98ca"/>
    <path id="パス_4495" data-name="パス 4495" d="M42.681,1.328c-.027.067-.055.147-.09.224-.286.619-.579,1.235-.857,1.857-.124.276-.285.313-.55.184-.6-.294-1.212-.571-1.825-.842-.285-.126-.344-.281-.2-.57.321-.656.614-1.326.915-1.992.066-.147.12-.259.318-.14a21.621,21.621,0,0,0,1.977.945c.144.068.3.126.315.334" transform="translate(-18044.977 -2015.362)" fill="#1f98ca"/>
    <path id="パス_4496" data-name="パス 4496" d="M69.724,30.656c-.35.727-.719,1.506-1.1,2.279-.054.109-.174.045-.262,0-.686-.314-1.37-.631-2.056-.944-.214-.1-.239-.242-.143-.445.306-.649.608-1.3.9-1.953.11-.245.254-.285.492-.171.636.306,1.279.594,1.918.894.117.055.257.1.251.334" transform="translate(-18064.322 -2036.383)" fill="#1f98ca"/>
    <path id="パス_4497" data-name="パス 4497" d="M37.7,25.132a.385.385,0,0,1-.083-.028q-1.025-.477-2.048-.957a.238.238,0,0,1-.124-.36q.479-1.023.947-2.052a.271.271,0,0,1,.411-.157c.7.322,1.388.647,2.082.971a.207.207,0,0,1,.112.322c-.325.693-.641,1.39-.961,2.086a.272.272,0,0,1-.336.174" transform="translate(-18042.348 -2030.778)" fill="#1f98ca"/>
    <path id="パス_4498" data-name="パス 4498" d="M19.72,38.134c-.025.062-.046.12-.072.175-.305.663-.618,1.323-.914,1.991-.115.26-.258.31-.514.185q-.919-.449-1.855-.862c-.249-.111-.331-.234-.2-.5.306-.623.593-1.255.874-1.889.115-.259.24-.352.528-.205.619.314,1.255.594,1.883.888.108.051.229.087.269.221" transform="translate(-18028.527 -2041.816)" fill="#1f98ca"/>
    <path id="パス_4499" data-name="パス 4499" d="M24.479,51.643a2.268,2.268,0,0,1-.133.316,12.218,12.218,0,0,0-.765,1.572c-.1.245-.238.3-.482.184q-.919-.447-1.849-.867a.311.311,0,0,1-.179-.49q.448-.937.871-1.887c.084-.187.184-.222.369-.134a17.89,17.89,0,0,0,1.768.778.519.519,0,0,1,.4.527" transform="translate(-18032.041 -2051.362)" fill="#1f98ca"/>
    <path id="パス_4500" data-name="パス 4500" d="M37.632,77.148c-.653-.286-1.3-.574-1.959-.856a2.988,2.988,0,0,0-.344-.1c-.08-.309.058-.423.357-.419.534.007,1.068,0,1.6,0,.25,0,.39.081.373.361-.021.338-.021.678-.03,1.018" transform="translate(-18042.273 -2069.6)" fill="#1f98ca"/>
    <path id="パス_4501" data-name="パス 4501" d="M85.363,100.186c.26,0,.443.227.7.233a7.1,7.1,0,0,1-.7,1.508Z" transform="translate(-18078.105 -2087.077)" fill="#1b4086"/>
  </g>
</svg>
